HIERARCHY
ROOT Hips
{
	OFFSET 0.000000 0.000000 0.000000 
	CHANNELS 6 Xposition Yposition Zposition Zrotation Yrotation Xrotation
	JOINT LeftUpLeg
	{
		OFFSET 1.363060 -1.794630 0.839290 
		CHANNELS 3 Zrotation Yrotation Xrotation
		JOINT LeftLeg
		{
			OFFSET 2.448110 -6.726130 0.000000 
			CHANNELS 3 Zrotation Yrotation Xrotation
			JOINT LeftFoot
			{
				OFFSET 2.562200 -7.039590 0.000000 
				CHANNELS 3 Zrotation Yrotation Xrotation
				JOINT LeftToeBase
				{
					OFFSET 0.157640 -0.433110 2.322550 
					CHANNELS 3 Zrotation Yrotation Xrotation
					End Site
					{
						OFFSET 0.000000 0.000000 0.000000 
					}
				}
			}
		}
	}
	JOINT RightUpLeg
	{
		OFFSET -1.305520 -1.794630 0.839290 
		CHANNELS 3 Zrotation Yrotation Xrotation
		JOINT RightLeg
		{
			OFFSET -2.542530 -6.985550 0.000000 
			CHANNELS 3 Zrotation Yrotation Xrotation
			JOINT RightFoot
			{
				OFFSET -2.568260 -7.056230 0.000000 
				CHANNELS 3 Zrotation Yrotation Xrotation
				JOINT RightToeBase
				{
					OFFSET -0.164730 -0.452590 2.363150 
					CHANNELS 3 Zrotation Yrotation Xrotation
					End Site
					{
						OFFSET 0.000000 0.000000 0.000000 
					}
				}
			}
		}
	}
	JOINT Spine
	{
		OFFSET 0.028270 2.035590 -0.193380 
		CHANNELS 3 Zrotation Yrotation Xrotation
		JOINT Spine1
		{
			OFFSET 0.056720 2.048850 -0.042750 
			CHANNELS 3 Zrotation Yrotation Xrotation
			JOINT Neck1
			{
				OFFSET -0.054170 1.746240 0.172020 
				CHANNELS 3 Zrotation Yrotation Xrotation
				JOINT Head
				{
					OFFSET 0.104070 1.761360 -0.123970 
					CHANNELS 3 Zrotation Yrotation Xrotation
					End Site
					{
						OFFSET 0.000000 0.000000 0.000000 
					}
				}
			}
			JOINT LeftArm
			{
				OFFSET 3.362410 1.200890 -0.311210 
				CHANNELS 3 Zrotation Yrotation Xrotation
				JOINT LeftForeArm
				{
					OFFSET 4.983000 -0.000000 -0.000000 
					CHANNELS 3 Zrotation Yrotation Xrotation
					JOINT LeftHand
					{
						OFFSET 3.483560 -0.000000 -0.000000 
						CHANNELS 3 Zrotation Yrotation Xrotation
						JOINT LeftHandIndex1
						{
							OFFSET 0.715260 -0.000000 -0.000000 
							CHANNELS 3 Zrotation Yrotation Xrotation
							End Site
							{
								OFFSET 0.000000 0.000000 0.000000 
							}
						}
					}
				}
			}
			JOINT RightArm
			{
				OFFSET -3.136600 1.374050 -0.404650 
				CHANNELS 3 Zrotation Yrotation Xrotation
				JOINT RightForeArm
				{
					OFFSET -5.241900 -0.000000 -0.000000 
					CHANNELS 3 Zrotation Yrotation Xrotation
					JOINT RightHand
					{
						OFFSET -3.444170 -0.000000 -0.000000 
						CHANNELS 3 Zrotation Yrotation Xrotation
						JOINT RightHandIndex1
						{
							OFFSET -0.622530 -0.000000 -0.000000 
							CHANNELS 3 Zrotation Yrotation Xrotation
							End Site
							{
								OFFSET 0.000000 0.000000 0.000000 
							}
						}
					}
				}
			}
		}
	}
}
MOTION
Frames: 15
Frame Time: 0.041667
10.825214 17.576291 34.035924 -179.660484 -2.425325 -174.868219 10.599585 -25.220121 9.392399 -1.656624 2.106160 -1.678690 10.431116 -10.535652 -0.866861 8.629700 16.563400 54.800400 -4.808596 25.981526 15.941182 2.918821 -1.026743 -1.894626 6.733580 -22.149429 -30.952680 -0.966800 -6.260300 17.541700 0.821222 0.579042 -5.580134 -1.951804 0.287904 -1.667870 4.165513 -3.182423 8.816056 0.943100 -1.423300 0.289200 -77.781732 7.942412 50.951453 11.263922 -19.164765 -2.559253 0.627839 -0.003565 -8.894094 -7.125000 0.000000 0.000000 78.994976 -13.058566 44.619546 -13.555573 19.975754 -4.370539 2.028414 4.950199 4.824357 7.125000 0.000000 0.000000 
10.824264 17.576291 34.038881 -179.640171 -2.455458 -174.892694 10.686674 -24.840039 9.180083 -1.650146 2.065008 -1.615724 10.119523 -10.032547 -0.409203 8.665200 16.587400 54.925000 -4.772128 25.948814 15.966763 2.912786 -1.031631 -1.846203 6.484295 -21.495186 -30.992003 -1.247300 -7.081000 19.955600 0.828110 0.543070 -5.577084 -1.929354 0.277128 -1.654144 4.290886 -3.124386 8.939555 1.035100 -1.396200 0.400500 -77.871566 7.845147 50.626154 11.287531 -19.107427 -2.550743 0.418256 0.290426 -8.389378 -7.125000 0.000000 0.000000 78.951079 -13.005505 44.760615 -13.525130 19.930067 -4.339311 2.053729 4.905739 4.722458 7.125000 0.000000 0.000000 
10.825003 17.575552 34.042789 -179.624579 -2.508596 -174.886269 10.739868 -24.824295 9.112670 -1.659130 2.066022 -1.591426 9.898195 -9.607778 -0.478312 8.605800 16.547200 54.716600 -4.732957 25.947674 15.986506 2.915302 -1.030186 -1.853674 6.511789 -21.563718 -30.954652 -1.201400 -6.954400 19.580300 0.835728 0.497876 -5.582790 -1.913445 0.256928 -1.663282 4.324983 -3.080671 9.046782 1.058000 -1.374400 0.498900 -77.906768 7.838539 50.444927 11.312994 -19.120748 -2.564630 0.359430 0.379831 -8.177407 -7.125000 0.000000 0.000000 78.914987 -12.945208 44.924072 -13.476229 19.863768 -4.307698 2.070615 4.879589 4.398707 7.125000 0.000000 0.000000 
10.827327 17.576397 34.048387 -179.538638 -2.405184 -174.883776 10.807125 -24.899655 9.161085 -1.652844 2.072870 -1.596621 9.905041 -9.602273 -0.575766 8.592800 16.538400 54.670900 -4.625413 26.185558 15.985812 2.938776 -1.051149 -1.826279 6.549189 -21.674373 -31.075353 -1.181200 -6.897600 19.412200 0.853691 0.540842 -5.589459 -1.889703 0.280695 -1.714096 4.294173 -3.098557 9.060200 1.037400 -1.383400 0.510600 -78.042490 7.378052 50.757433 10.826414 -18.477214 -2.377278 0.424718 0.310800 -8.382241 -7.125000 0.000000 0.000000 78.857102 -12.934919 45.059071 -13.425791 19.800814 -4.286108 2.086220 4.875746 3.991029 7.125000 0.000000 0.000000 
10.829439 17.576820 34.053986 -179.456500 -2.359358 -174.858414 10.923412 -24.840538 9.087165 -1.641180 2.067689 -1.579602 9.855138 -9.497058 -0.538111 8.578700 16.528800 54.621300 -4.516050 26.387909 15.989476 2.959277 -1.067241 -1.796426 6.518013 -21.614066 -31.223522 -1.221400 -7.009900 19.744800 0.870137 0.549869 -5.597401 -1.871974 0.288367 -1.746934 4.317541 -3.084053 9.103858 1.053900 -1.376900 0.549600 -78.143778 7.037854 50.934983 10.490643 -18.015022 -2.252021 0.426262 0.319573 -8.447561 -7.125000 0.000000 0.000000 78.809072 -12.914182 45.171740 -13.392551 19.756698 -4.268024 2.097484 4.865989 3.761006 7.125000 0.000000 0.000000 
10.831763 17.577559 34.059689 -179.364774 -2.307938 -174.822811 11.050758 -24.798692 9.014708 -1.626430 2.064645 -1.566570 9.853806 -9.471931 -0.521329 8.568500 16.521900 54.585500 -4.394593 26.621877 15.991325 2.983229 -1.085001 -1.765331 6.496186 -21.583484 -31.398307 -1.245100 -7.075100 19.938100 0.886919 0.565293 -5.606574 -1.857502 0.298859 -1.783044 4.343251 -3.078492 9.140012 1.071200 -1.375200 0.579000 -78.240121 6.697267 51.182616 10.144262 -17.543477 -2.125288 0.448796 0.297281 -8.585521 -7.125000 0.000000 0.000000 78.766068 -12.904722 45.254135 -13.366391 19.722666 -4.255222 2.102775 4.862643 3.597035 7.125000 0.000000 0.000000 
10.833981 17.578510 34.064970 -179.279357 -2.259938 -174.790456 11.167853 -24.756662 8.949374 -1.611366 2.060413 -1.558394 9.870501 -9.482583 -0.497579 8.570500 16.523300 54.592700 -4.280838 26.837886 15.993631 3.005479 -1.101816 -1.734909 6.468679 -21.537313 -31.564860 -1.267300 -7.135400 20.117100 0.901454 0.583432 -5.614897 -1.848310 0.310265 -1.817683 4.368588 -3.079714 9.170065 1.087500 -1.376900 0.601100 -78.324441 6.413930 51.422444 9.854292 -17.148598 -2.021648 0.473065 0.270164 -8.725766 -7.125000 0.000000 0.000000 78.733145 -12.907072 45.303646 -13.349450 19.700625 -4.247155 2.103525 4.862302 3.518765 7.125000 0.000000 0.000000 
10.835565 17.579777 34.069195 -179.210298 -2.223839 -174.770253 11.258033 -24.719384 8.900845 -1.599128 2.055653 -1.554976 9.887616 -9.500369 -0.475915 8.577600 16.528100 54.617600 -4.189004 27.001431 15.998552 3.022547 -1.114782 -1.710439 6.440614 -21.485397 -31.696788 -1.284500 -7.182000 20.255600 0.911675 0.600126 -5.621326 -1.848463 0.320032 -1.848319 4.385466 -3.089719 9.197344 1.096500 -1.382900 0.620300 -78.384984 6.221001 51.606973 9.656898 -16.878642 -1.952570 0.491020 0.250752 -8.828610 -7.125000 0.000000 0.000000 78.716724 -12.919946 45.306853 -13.343519 19.692505 -4.244382 2.101249 4.863161 3.542440 7.125000 0.000000 0.000000 
10.836305 17.581045 34.072364 -179.170229 -2.203736 -174.766560 11.304461 -24.704070 8.882556 -1.592916 2.053610 -1.555359 9.895324 -9.506850 -0.478682 8.578500 16.528700 54.620800 -4.129399 27.097664 16.012088 3.032627 -1.121775 -1.698550 6.423418 -21.454533 -31.773916 -1.290700 -7.198600 20.305100 0.916163 0.613575 -5.625154 -1.857725 0.326984 -1.874360 4.384661 -3.107834 9.224339 1.091800 -1.392400 0.638700 -78.416083 6.127462 51.715389 9.560017 -16.745516 -1.919521 0.501930 0.241401 -8.877028 -7.125000 0.000000 0.000000 78.717357 -12.939342 45.260286 -13.345492 19.694142 -4.245089 2.096995 4.863894 3.659473 7.125000 0.000000 0.000000 
10.836410 17.582206 34.074477 -179.163597 -2.194866 -174.776546 11.306551 -24.706047 8.889970 -1.592682 2.054273 -1.558039 9.895915 -9.506162 -0.502244 8.570400 16.523200 54.592300 -4.106615 27.138602 16.033834 3.035823 -1.122060 -1.701552 6.418286 -21.449637 -31.806305 -1.290200 -7.197100 20.300500 0.915531 0.624166 -5.626791 -1.869049 0.331692 -1.895857 4.369883 -3.129437 9.251654 1.075900 -1.403200 0.657600 -78.420984 6.122309 51.758383 9.553929 -16.735907 -1.917670 0.505173 0.241740 -8.881286 -7.125000 0.000000 0.000000 78.726664 -12.958876 45.182533 -13.350405 19.699326 -4.247134 2.093828 4.863331 3.842090 7.125000 0.000000 0.000000 
10.836094 17.583263 34.076272 -179.177280 -2.191068 -174.788633 11.290719 -24.702167 8.895926 -1.594185 2.056373 -1.557753 9.902965 -9.519016 -0.518556 8.551200 16.510100 54.524500 -4.104309 27.166375 16.062113 3.036259 -1.118142 -1.713588 6.415534 -21.452410 -31.835849 -1.294300 -7.208100 20.333500 0.912404 0.632719 -5.627363 -1.879707 0.334940 -1.912954 4.352561 -3.144656 9.274536 1.057600 -1.410500 0.673700 -78.416305 6.116740 51.792527 9.547323 -16.727581 -1.916394 0.509727 0.242266 -8.881921 -7.125000 0.000000 0.000000 78.738517 -12.971657 45.093338 -13.353535 19.701720 -4.247639 2.094616 4.858987 4.046549 7.125000 0.000000 0.000000 
10.835777 17.584002 34.078068 -179.199740 -2.194416 -174.792154 11.277723 -24.680695 8.879824 -1.594683 2.057166 -1.553144 9.917615 -9.545916 -0.502273 8.529200 16.495100 54.447400 -4.109255 27.204767 16.094258 3.036595 -1.112076 -1.729747 6.409335 -21.451520 -31.884868 -1.306100 -7.239600 20.427200 0.908561 0.637850 -5.627523 -1.886184 0.336778 -1.925088 4.340877 -3.152038 9.287603 1.042800 -1.413900 0.683400 -78.400814 6.112011 51.843110 9.547603 -16.727926 -1.916628 0.511830 0.242870 -8.898862 -7.125000 0.000000 0.000000 78.745434 -12.974716 45.028684 -13.353849 19.700314 -4.246109 2.096946 4.852779 4.213528 7.125000 0.000000 0.000000 
10.835671 17.584425 34.079863 -179.228624 -2.206647 -174.785499 11.271373 -24.647473 8.843381 -1.594322 2.055544 -1.547464 9.930470 -9.569841 -0.456233 8.515000 16.485300 54.397300 -4.119272 27.245747 16.123834 3.036718 -1.104348 -1.748864 6.399907 -21.443889 -31.942232 -1.320200 -7.277200 20.539200 0.905360 0.637023 -5.627661 -1.884793 0.336120 -1.931952 4.342845 -3.142571 9.288313 1.038500 -1.408900 0.683800 -78.385457 6.107732 51.882255 9.551932 -16.733565 -1.917881 0.511585 0.244007 -8.918918 -7.125000 0.000000 0.000000 78.739864 -12.969503 45.018665 -13.352379 19.697176 -4.244079 2.099139 4.848907 4.316582 7.125000 0.000000 0.000000 
10.835565 17.584530 34.081553 -179.253547 -2.225653 -174.774237 11.269973 -24.622526 8.804361 -1.593976 2.053647 -1.541710 9.937229 -9.581482 -0.408705 8.511000 16.482500 54.383000 -4.127664 27.278937 16.149133 3.036627 -1.096142 -1.768838 6.390497 -21.435643 -31.995282 -1.328100 -7.298000 20.601200 0.903342 0.631999 -5.627318 -1.877399 0.334072 -1.932653 4.368055 -3.122736 9.289423 1.052700 -1.399300 0.683900 -78.376392 6.101692 51.896894 9.557988 -16.740963 -1.919550 0.510001 0.245628 -8.935390 -7.125000 0.000000 0.000000 78.724458 -12.955687 45.067587 -13.349016 19.693001 -4.242775 2.103252 4.848906 4.357385 7.125000 0.000000 0.000000 
10.835354 17.584636 34.083243 -179.265559 -2.245197 -174.766648 11.273479 -24.607128 8.775046 -1.593243 2.051114 -1.538883 9.940594 -9.588124 -0.364578 8.522500 16.490400 54.423700 -4.129719 27.290404 16.165646 3.036265 -1.088578 -1.786618 6.385005 -21.433045 -32.028875 -1.325300 -7.290700 20.579400 0.903191 0.625050 -5.625993 -1.869737 0.331678 -1.930452 4.398500 -3.099079 9.286895 1.073500 -1.388100 0.680800 -78.373282 6.093627 51.893555 9.564247 -16.748306 -1.921412 0.507658 0.248350 -8.954758 -7.125000 0.000000 0.000000 78.699002 -12.933747 45.165553 -13.342194 19.685079 -4.239680 2.107462 4.849130 4.322751 7.125000 0.000000 0.000000 
